<svg width="60" height="68" viewBox="0 0 60 68" fill="none" xmlns="http://www.w3.org/2000/svg">
<path d="M60 3.97329V64.0266C59.993 64.902 59.6419 65.7395 59.0226 66.3583C58.4033 66.977 57.5654 67.3272 56.69 67.3333H3.31C2.43271 67.3333 1.5913 66.985 0.970654 66.365C0.350005 65.745 0.000883474 64.9039 0 64.0266V3.97329C0.00698217 3.09789 0.35806 2.26038 0.977392 1.64167C1.59672 1.02296 2.43459 0.672726 3.31 0.666626H56.69C58.5167 0.666626 60 2.14663 60 3.97329ZM53.3333 7.33329H6.66667V60.6666H53.3333V7.33329ZM27.6433 37.7366L41.7867 23.5966L46.5 28.31L27.6433 47.1666L14.6767 34.2L19.3933 29.4866L27.6433 37.7366Z" fill="#29292E"/>
<path d="M27.6434 37.7366L41.7868 23.5966L46.5001 28.3099L27.6434 47.1666L14.6768 34.1999L19.3934 29.4866L27.6434 37.7366Z" fill="#03B352"/>
</svg>
